<svg width="20" height="19" viewBox="0 0 20 19" fill="none" xmlns="http://www.w3.org/2000/svg">
<path fill-rule="evenodd" clip-rule="evenodd" d="M10.6374 5.36968V7.49081C11.0816 6.81419 11.6939 6.2645 12.4144 5.89554C13.1348 5.52657 13.9387 5.35097 14.7474 5.38593C19.0662 5.38593 19.9999 8.08577 19.9999 11.5981V18.7489H15.9999V12.4093C15.9999 10.8969 15.6949 8.95197 13.3399 8.95197C11.0562 8.95197 10.6662 10.5981 10.6662 12.2968V18.7489H6.67867V5.36968H10.6374ZM3.99991 2.00738C3.99942 2.40361 3.88196 2.79088 3.66226 3.12063C3.44256 3.45038 3.13039 3.70794 2.76491 3.86102C2.39956 4.01286 1.99731 4.05258 1.60932 3.97512C1.22134 3.89767 0.865169 3.70653 0.58615 3.42605C0.306607 3.14539 0.116293 2.78834 0.0391394 2.39982C-0.0380137 2.01129 0.00143977 1.60863 0.152538 1.24246C0.303635 0.876294 0.559632 0.562975 0.888335 0.341904C1.21704 0.120832 1.60377 0.00187789 1.9999 0C2.26318 -1.85101e-06 2.52387 0.0519739 2.76701 0.152946C3.01015 0.253918 3.23096 0.401899 3.41678 0.588401C3.6026 0.774902 3.74976 0.996253 3.84983 1.23976C3.94989 1.48326 4.0009 1.74412 3.99991 2.00738Z" fill="white"/>
<path d="M4.00001 5.38672H0V18.7497H4.00001V5.38672Z" fill="white"/>
</svg>
