<svg width="22" height="24" viewBox="0 0 22 24" fill="none" xmlns="http://www.w3.org/2000/svg">
<path d="M11 0C13.9174 0 16.7153 1.12843 18.7782 3.13706C20.8411 5.14569 22 7.86997 22 10.7106C22 14.3689 19.9516 17.3631 17.7931 19.5111C16.7147 20.5728 15.538 21.5352 14.278 22.3863L13.7573 22.7315L13.5129 22.8897L13.0521 23.1754L12.6414 23.4193L12.133 23.7073C11.7879 23.8991 11.3974 24 11 24C10.6026 24 10.2121 23.8991 9.867 23.7073L9.35855 23.4193L8.723 23.0385L8.48833 22.8897L7.98722 22.5648C6.62791 21.6693 5.36177 20.6466 4.20689 19.5111C2.04844 17.3619 0 14.3689 0 10.7106C0 7.86997 1.15893 5.14569 3.22183 3.13706C5.28473 1.12843 8.08262 0 11 0ZM11 7.1404C10.5185 7.1404 10.0417 7.23274 9.59683 7.41216C9.15197 7.59158 8.74776 7.85456 8.40727 8.18609C8.06679 8.51761 7.79671 8.91119 7.61244 9.34434C7.42817 9.7775 7.33333 10.2418 7.33333 10.7106C7.33333 11.1794 7.42817 11.6437 7.61244 12.0769C7.79671 12.51 8.06679 12.9036 8.40727 13.2351C8.74776 13.5666 9.15197 13.8296 9.59683 14.009C10.0417 14.1885 10.5185 14.2808 11 14.2808C11.9725 14.2808 12.9051 13.9047 13.5927 13.2351C14.2804 12.5656 14.6667 11.6575 14.6667 10.7106C14.6667 9.76372 14.2804 8.85563 13.5927 8.18609C12.9051 7.51654 11.9725 7.1404 11 7.1404Z" fill="white"/>
</svg>
